<?xml version="1.0" encoding="iso-8859-1"?>
<!-- Generator: Adobe Illustrator 18.1.1, SVG Export Plug-In . SVG Version: 6.00 Build 0)  -->
<svg version="1.1" id="Capa_1" xmlns="http://www.w3.org/2000/svg" xmlns:xlink="http://www.w3.org/1999/xlink" x="0px" y="0px"
	 viewBox="0 0 525.153 525.153" style="enable-background:new 0 0 525.153 525.153;" xml:space="preserve">
<g>
	<path d="M262.576,131.288V26.236H0v472.681h525.153V131.288H262.576z M105.052,446.38H52.515v-52.515h52.515v52.515H105.052z
		 M105.052,341.349H52.515v-52.515h52.515v52.515H105.052z M105.052,236.341H52.515v-52.537h52.515v52.537H105.052z
		 M105.052,131.288H52.515V78.773h52.515v52.515H105.052z M210.061,446.38h-52.515v-52.515h52.515V446.38z M210.061,341.349h-52.515
		v-52.515h52.515V341.349z M210.061,236.341h-52.515v-52.537h52.515V236.341z M210.061,131.288h-52.515V78.773h52.515V131.288z
		 M472.637,446.38H262.576v-52.515h52.515v-52.515h-52.515v-52.515h52.515v-52.471h-52.515v-52.559h210.061V446.38z M420.1,236.341
		h-52.471v52.471H420.1V236.341z M420.1,341.349h-52.471v52.515H420.1V341.349z"/>
</g>
<g>
</g>
<g>
</g>
<g>
</g>
<g>
</g>
<g>
</g>
<g>
</g>
<g>
</g>
<g>
</g>
<g>
</g>
<g>
</g>
<g>
</g>
<g>
</g>
<g>
</g>
<g>
</g>
<g>
</g>
</svg>
